<?xml version="1.0" standalone="no"?><!DOCTYPE svg PUBLIC "-//W3C//DTD SVG 1.1//EN" "http://www.w3.org/Graphics/SVG/1.1/DTD/svg11.dtd"><svg t="1787821015593" class="icon" viewBox="0 0 1024 1024" version="1.1" xmlns="http://www.w3.org/2000/svg" p-id="9093" xmlns:xlink="http://www.w3.org/1999/xlink" width="200" height="200"><path d="M871.07 297.09c0-73.97-59.96-133.93-133.93-133.93-53.77 0-100.14 31.7-121.45 77.42-31.93-10.86-66.16-16.75-101.76-16.75-37.44 0-73.36 6.53-106.69 18.49-20.94-46.66-67.79-79.16-122.25-79.16-73.97 0-133.93 59.96-133.93 133.93 0 51.68 29.27 96.51 72.13 118.84-16.22 38.03-25.2 79.88-25.2 123.83 0 174.48 141.45 315.93 315.93 315.93s315.93-141.45 315.93-315.93c0-44.93-9.4-87.65-26.3-126.35 40.33-23.08 67.51-66.52 67.51-116.32z" fill="#FFDEA4" p-id="9094"></path><path d="M513.93 863.69c-86.52 0-167.87-33.69-229.05-94.88C223.7 707.63 190 626.28 190 539.76c0-41.61 7.76-82.04 23.08-120.29-43.37-25.48-70.01-71.72-70.01-122.38 0-78.26 63.67-141.93 141.93-141.93 53.37 0 102.2 30.09 126.37 77.26 33-11.02 67.47-16.6 102.57-16.6s66.18 5.04 97.68 15c11.3-21.39 27.88-39.54 48.27-52.81 23-14.95 49.71-22.86 77.26-22.86 78.26 0 141.93 63.67 141.93 141.93 0 48.4-24.9 93.58-65.44 119.57 16.09 39.08 24.24 80.46 24.24 123.1 0 86.52-33.69 167.87-94.88 229.05-61.18 61.18-142.53 94.88-229.05 94.88zM284.99 171.16c-69.44 0-125.93 56.49-125.93 125.93 0 47.13 25.99 89.95 67.83 111.75l6.57 3.42-2.9 6.81C214.26 457.28 206 497.89 206 539.76c0 82.25 32.03 159.58 90.19 217.74s135.49 90.19 217.74 90.19 159.58-32.03 217.74-90.19 90.19-135.49 90.19-217.74c0-42.78-8.62-84.21-25.63-123.15l-2.87-6.58 6.23-3.57c39.16-22.41 63.49-64.32 63.49-109.38 0-69.44-56.49-125.93-125.93-125.93-48.76 0-93.58 28.58-114.2 72.8l-3.03 6.51-6.79-2.31c-31.86-10.83-65.23-16.33-99.19-16.33-35.67 0-70.66 6.06-103.99 18.02l-6.97 2.5-3.03-6.75c-20.29-45.21-65.41-74.43-114.95-74.43z" fill="#510C0C" p-id="9095"></path><path d="M443.47 711c-44.01 0-75.2-38.93-76.51-40.59a7.989 7.989 0 0 1 1.33-11.23 8.006 8.006 0 0 1 11.23 1.32c0.36 0.45 27.85 34.5 63.95 34.5 39.63 0 62.92-33.67 63.15-34.02 2.48-3.65 7.44-4.62 11.1-2.15a7.996 7.996 0 0 1 2.18 11.08c-1.12 1.68-28.11 41.09-76.43 41.09z" fill="#510C0C" p-id="9096"></path><path d="M583.47 711c-44.01 0-75.2-38.93-76.51-40.59a7.989 7.989 0 0 1 1.33-11.23 8.006 8.006 0 0 1 11.23 1.32c0.36 0.45 27.85 34.5 63.95 34.5 39.63 0 62.92-33.67 63.15-34.02 2.48-3.65 7.44-4.62 11.1-2.15a7.996 7.996 0 0 1 2.18 11.08c-1.12 1.68-28.11 41.09-76.43 41.09z" fill="#510C0C" p-id="9097"></path><path d="M511.07 589.93m-65.86 0a65.86 65.86 0 1 0 131.72 0 65.86 65.86 0 1 0-131.72 0Z" fill="#FFBBCD" p-id="9098"></path><path d="M511.07 663.79c-40.73 0-73.86-33.14-73.86-73.86s33.14-73.86 73.86-73.86 73.86 33.14 73.86 73.86-33.14 73.86-73.86 73.86z m0-131.73c-31.91 0-57.86 25.96-57.86 57.86s25.96 57.86 57.86 57.86 57.86-25.96 57.86-57.86-25.96-57.86-57.86-57.86z" fill="#510C0C" p-id="9099"></path><path d="M221.77 378.95c-2.05 0-4.09-0.78-5.66-2.34-41.09-41.09-41.09-107.94 0-149.03s107.94-41.09 149.03 0c3.12 3.12 3.12 8.19 0 11.31-3.12 3.12-8.19 3.12-11.31 0-34.85-34.85-91.56-34.85-126.41 0-34.85 34.85-34.85 91.56 0 126.41 3.12 3.12 3.12 8.19 0 11.31a7.98 7.98 0 0 1-5.66 2.34zM803.96 378.95c-2.05 0-4.09-0.78-5.66-2.34-3.12-3.12-3.12-8.19 0-11.31 34.85-34.85 34.85-91.56 0-126.41-34.85-34.85-91.56-34.85-126.41 0-3.12 3.12-8.19 3.12-11.31 0-3.12-3.12-3.12-8.19 0-11.31 41.09-41.09 107.94-41.09 149.03 0s41.09 107.94 0 149.03a7.98 7.98 0 0 1-5.66 2.34z" fill="#FFFFFF" p-id="9100"></path></svg>